<svg width="33" height="32" viewBox="0 0 33 32" fill="none" xmlns="http://www.w3.org/2000/svg">
<path d="M9.91971 17.5103L19.3359 11.8847C19.5468 11.7594 19.8167 11.7714 20.0142 11.9194C20.9088 12.5874 21.708 13.2648 22.2413 13.8342C22.2413 13.8342 22.7007 14.2902 22.8995 14.5795C23.2205 14.9742 23.375 15.4902 23.375 15.9916C23.375 16.5543 23.2058 17.0863 22.8686 17.5117C22.792 17.5877 22.5005 17.9224 22.2252 18.1957C20.6187 19.8971 16.425 22.7079 14.2194 23.56C13.8984 23.6973 13.0414 23.984 12.5968 24C12.1683 24 11.7546 23.9093 11.357 23.7107C10.868 23.4373 10.4852 23.0133 10.2703 22.5106C10.1319 22.1612 9.91837 21.1132 9.91837 21.0825C9.78001 20.3345 9.67658 19.2838 9.62554 18.057C9.61614 17.837 9.73031 17.6237 9.91971 17.5103" fill="#163C9F"/>
<path opacity="0.4" d="M10.5494 14.4803C10.1344 14.7297 9.61184 14.411 9.63199 13.9323C9.68169 12.8096 9.76766 11.8202 9.87243 11.0842C9.88855 11.0682 10.1021 9.76275 10.3479 9.3214C10.7764 8.50136 11.6173 8 12.5213 8H12.5965C13.1795 8.01467 14.4193 8.51602 14.4193 8.54669C15.0439 8.79871 15.8593 9.22539 16.7364 9.73875C17.1313 9.97076 17.1407 10.5401 16.7458 10.7761L10.5494 14.4803Z" fill="#163C9F"/>
</svg>
