<!DOCTYPE svg PUBLIC "-//W3C//DTD SVG 1.1//EN" "http://www.w3.org/Graphics/SVG/1.1/DTD/svg11.dtd">
<!-- Uploaded to: SVG Repo, www.svgrepo.com, Transformed by: SVG Repo Mixer Tools -->
<svg fill="#2E3E5C" version="1.1" id="Capa_1" xmlns="http://www.w3.org/2000/svg" xmlns:xlink="http://www.w3.org/1999/xlink" width="800px" height="800px" viewBox="0 0 940.453 940.453" xml:space="preserve">
<g id="SVGRepo_bgCarrier" stroke-width="0"/>
<g id="SVGRepo_tracerCarrier" stroke-linecap="round" stroke-linejoin="round"/>
<g id="SVGRepo_iconCarrier"> <g> <path d="M20.03,847.46h871.537c14.945,0,24.61-15.797,17.807-29.104L773.623,552.843c-6.471-12.657-23.711-14.712-32.976-3.932 L627.259,680.854L366.967,258.8c-7.898-12.809-26.583-12.633-34.239,0.322L2.813,817.284C-5.067,830.616,4.543,847.46,20.03,847.46 z"/> <path d="M854.389,198.25c-1.763,0-3.51,0.07-5.246,0.174c-4.574-58.989-53.888-105.431-114.051-105.431 c-60.162,0-109.476,46.442-114.05,105.431c-1.737-0.104-3.482-0.174-5.246-0.174c-47.531,0-86.063,38.533-86.063,86.064 c0,47.532,38.531,86.063,86.063,86.063h238.593c47.531,0,86.064-38.531,86.064-86.063S901.921,198.25,854.389,198.25z"/> </g> </g>
</svg>